# xmcd
#
# Track frame offsets:
#	150
#	13152
#	29957
#	49352
#	62507
#	77553
#	90323
#	106310
#	129020
#	141443
#	159560
#	175653
#	190643
#	203928
#	222228
#	234973
#
# Disc length: 3326 seconds
# Revision: 0
# Processed by: cddbd v1.5.2PL0 Copyright (c) Steve Scherf et al.
# Submitted via: dBpowerAMP V12.0
#
DISCID=d40cfc10
DTITLE=Lightnin' Hopkins - Talkin' Some Sense
DYEAR=1968
DGENRE=Blues
TTITLE0=Long Way From Home
TTITLE1=I'm Tired of Trouble
TTITLE2=Viet Nam War Parts 1 and 2
TTITLE3=Lightnin' Strikes One More Time
TTITLE4=Walkin' Blues
TTITLE5=Talkin' Some Sense
TTITLE6=Lonesome Lightnin'
TTITLE7=My Suggestion
TTITLE8=Uncle Stan, The Hip Hit Record Man
TTITLE9=You're Gonna Miss Me
TTITLE10=The Purple Puppy
TTITLE11=Walk Me [Houston 1969]
TTITLE12=Jail House Blues [Houston 1969]
TTITLE13=My Money is What You Want [Houston 1968]
TTITLE14=I Hate I Got Married [Houston 1969]
TTITLE15=Race Track [Houston 1968]
EXTD=
EXTT0=
EXTT1=
EXTT2=
EXTT3=
EXTT4=
EXTT5=
EXTT6=
EXTT7=
EXTT8=
EXTT9=
EXTT10=
EXTT11=
EXTT12=
EXTT13=
EXTT14=
EXTT15=
PLAYORDER=
